<svg width="8274" height="9346" viewBox="0 0 8274 9346" fill="none" xmlns="http://www.w3.org/2000/svg">
<path d="M8233 4682.54L3765.33 9301.2C3749.66 9317.4 3722.23 9306.22 3722.37 9283.67L3727.41 8426.39C3727.45 8419.97 3729.96 8413.8 3734.42 8409.18L7365.16 4647.8C7369.87 4642.92 7376.36 4640.16 7383.15 4640.16H8215.03C8237.11 4640.16 8248.35 4666.68 8233 4682.54Z" fill="#FF0404"/>
<path d="M3816.7 35.5646L8211.74 4621.28C8233.03 4643.49 8243.67 4654.59 8244.03 4664.08C8244.32 4671.61 8241.2 4678.87 8235.53 4683.84C8228.39 4690.1 8213.01 4690 8182.25 4689.8H8182.25L7400.02 4684.84C7393.58 4684.8 7390.36 4684.78 7387.34 4684C7384.89 4683.36 7382.55 4682.35 7380.4 4681.01C7377.76 4679.36 7375.53 4677.04 7371.07 4672.4L7371.06 4672.4L3758.25 910.8L3758.25 910.797C3754 906.367 3751.87 904.152 3750.37 901.579C3749.15 899.482 3748.23 897.218 3747.66 894.859C3746.96 891.963 3746.96 888.891 3746.96 882.746L3746.96 63.5881C3746.96 31.4369 3746.96 15.3613 3753.45 8.21299C3758.6 2.54146 3766.06 -0.457529 3773.7 0.0753148C3783.33 0.746903 3794.46 12.3528 3816.7 35.5646Z" fill="#FF0404"/>
<path d="M214.757 4622.02L3598.69 964.809C3614.23 948.019 3642.29 959.184 3642.04 982.058L3634.83 1651.21C3634.77 1657.4 3632.4 1663.35 3628.2 1667.9L866.292 4659.15C861.529 4664.31 854.816 4667.23 847.794 4667.19L232.977 4663.99C211.231 4663.88 199.988 4637.98 214.757 4622.02Z" fill="#7E0606"/>
<path d="M3557.29 8397.14L227.211 4687.99C212.667 4671.79 224.342 4646.03 246.112 4646.29L855.978 4653.56C862.962 4653.64 869.593 4656.64 874.265 4661.83L3597.99 7689.2C3602.15 7693.82 3604.43 7699.83 3604.4 7706.05L3600.89 8380.57C3600.77 8403.44 3572.56 8414.16 3557.29 8397.14Z" fill="#7E0606"/>
<path d="M4759.17 6126.19L3887.75 5098C3887.22 5097.37 3887.67 5096.38 3888.51 5096.34L3979.49 5092.78C3979.74 5092.77 3979.98 5092.85 3980.16 5093.01L4757.56 5762.7C4757.77 5762.88 4757.89 5763.14 4757.89 5763.43L4760.94 6125.49C4760.95 6126.43 4759.77 6126.9 4759.17 6126.19Z" fill="#2BDF0E" stroke="#FDFFFD" stroke-width="5"/>
<path d="M5173.91 3449.07L4751.94 2954.59C4745.94 2947.55 4734.19 2952.22 4734.27 2961.62L4761.15 6149.87C4761.23 6159.29 4773.1 6163.02 4778.96 6155.46L5192.27 5622.15C5193.69 5620.31 5194.46 5618.06 5194.44 5615.77L5176.23 3455.32C5176.21 3453.01 5175.39 3450.8 5173.91 3449.07Z" fill="#2BE70C" stroke="white" stroke-width="5"/>
<path d="M4517.07 2885.65L3743.46 2119.66C3737.15 2113.42 3726.23 2118.3 3726.33 2127.31L3782.98 7044.31C3783.09 7053.35 3794.17 7057.28 3800.31 7050.45L4555.4 6209.73C4557.14 6207.8 4558.09 6205.3 4558.06 6202.74L4519.92 2892.45C4519.89 2889.87 4518.87 2887.44 4517.07 2885.65Z" fill="#2BE70C" stroke="white" stroke-width="5"/>
<path d="M3782.25 7018.74L1562.67 4607.33C1562.1 4606.71 1562.55 4605.68 1563.41 4605.64L1797.73 4595.64C1797.97 4595.63 1798.2 4595.71 1798.38 4595.85L3773.76 6160.55C3773.99 6160.73 3774.12 6161 3774.12 6161.3L3783.99 7018C3784.01 7018.93 3782.87 7019.41 3782.25 7018.74Z" fill="#2BDF0E" stroke="#FDFFFD" stroke-width="5"/>
<path d="M3724.79 2152.52L1153.39 6147.21C1152.95 6147.89 1153.44 6148.77 1154.24 6148.73L1378.24 6139.17C1378.55 6139.16 1378.83 6139.01 1379.02 6138.76L3736.27 3008.45C3736.41 3008.27 3736.48 3008.04 3736.48 3007.82L3726.63 2153C3726.62 2152.01 3725.34 2151.67 3724.79 2152.52Z" fill="#24BC0B" stroke="#F7FBF7" stroke-width="5"/>
</svg>
