<svg width="490" height="490" viewBox="0 0 490 490" fill="none" xmlns="http://www.w3.org/2000/svg">
<circle cx="245" cy="245" r="241" fill="black" stroke="#B5E056" stroke-width="8"/>
<path d="M65.9375 359L110.029 160.074H115.156L135.664 255.777L113.105 359H65.9375ZM138.74 329.947L148.994 282.779H161.299L125.068 119.742H172.578L228.975 359H181.123L174.287 329.947H138.74ZM240.596 293.033V276.285H288.789V293.033C289.017 302.604 293.46 308.756 302.119 311.49C303.031 311.946 303.828 312.174 304.512 312.174V360.709C291.979 360.709 279.333 355.81 266.572 346.012C249.482 332.568 240.824 314.908 240.596 293.033ZM322.969 360.709V312.174C327.07 312.174 331.4 310.237 335.957 306.363C339.831 302.717 341.882 298.274 342.109 293.033V119.742H389.961V293.033C389.961 318.326 378.682 337.467 356.123 350.455C344.502 357.291 333.451 360.709 322.969 360.709Z" fill="#B5E056"/>
</svg>
